<svg width="34" height="34" viewBox="0 0 34 34" fill="none" xmlns="http://www.w3.org/2000/svg">
<rect x="0.75" y="0.75" width="32.5" height="32.5" rx="16.25" stroke="#19707D" stroke-width="1.5"/>
<path d="M22.6347 17.4376L17.0097 23.0086L11.3847 17.4376C11.0137 17.0765 10.7215 16.6426 10.5264 16.163C10.3313 15.6835 10.2377 15.1688 10.2513 14.6513C10.2649 14.1337 10.3856 13.6247 10.6056 13.1561C10.8257 12.6875 11.1403 12.2695 11.5299 11.9285C11.9194 11.5875 12.3753 11.3308 12.8689 11.1747C13.3624 11.0185 13.883 10.9662 14.3978 11.0212C14.9125 11.0761 15.4104 11.237 15.8599 11.4937C16.3094 11.7505 16.7009 12.0976 17.0097 12.5131C17.3199 12.1006 17.7118 11.7565 18.1611 11.5025C18.6103 11.2485 19.1071 11.0899 19.6204 11.0367C20.1338 10.9835 20.6526 11.0368 21.1443 11.1933C21.6361 11.3499 22.0903 11.6062 22.4784 11.9463C22.8666 12.2864 23.1803 12.703 23.4001 13.17C23.6198 13.6369 23.7408 14.1442 23.7555 14.6601C23.7702 15.176 23.6782 15.6893 23.4853 16.168C23.2925 16.6467 23.0029 17.0804 22.6347 17.4421" stroke="#19707D" stroke-width="1.5" stroke-linecap="round" stroke-linejoin="round"/>
</svg>
